<?xml version="1.0" encoding="UTF-8" standalone="no"?>
<!-- Created with Inkscape (http://www.inkscape.org/) -->
<svg xmlns:inkscape="http://www.inkscape.org/namespaces/inkscape" xmlns:rdf="http://www.w3.org/1999/02/22-rdf-syntax-ns#" xmlns="http://www.w3.org/2000/svg" xmlns:xlink="http://www.w3.org/1999/xlink" xmlns:ns1="http://sozi.baierouge.fr" xmlns:cc="http://creativecommons.org/ns#" xmlns:sodipodi="http://sodipodi.sourceforge.net/DTD/sodipodi-0.dtd" xmlns:dc="http://purl.org/dc/elements/1.1/" id="svg2" xml:space="preserve" viewBox="0 0 37.013 36.983" version="1.1" inkscape:version="0.91 r13725">
  <defs id="defs6">
    <linearGradient id="linearGradient24" y2="-671.69" gradientUnits="userSpaceOnUse" x2="538.28" gradientTransform="matrix(.000013363 -.6 -.6 .0006 -387.84 324.63)" y1="-671.69" x1="493.38">
      <stop id="stop26" style="stop-color:#884a16" offset="0"/>
      <stop id="stop28" style="stop-color:#723e11" offset=".79610"/>
      <stop id="stop30" style="stop-color:#65380e" offset="1"/>
    </linearGradient>
    <linearGradient id="linearGradient44" y2="494.26" gradientUnits="userSpaceOnUse" x2="691.02" gradientTransform="matrix(.6 0 0 -.6 -387.84 324.63)" y1="494.26" x1="651.35">
      <stop id="stop46" style="stop-color:#d26f24" offset="0"/>
      <stop id="stop48" style="stop-color:#a65b1c" offset="1"/>
    </linearGradient>
    <clipPath id="clipPath90">
      <path id="path92" d="m18.898 27.723c2.204-0.219 3.864-1.058 4.981-2.519 1.019-1.301 1.531-2.957 1.531-4.981l-0.058-14.098c-0.043-2.621-0.622-4.371-1.743-5.25-0.957-0.742-2.558-1-4.8-0.781l-15.387 3.391c-1.344 0.379-2.242 0.98-2.703 1.801-0.481 0.859-0.719 2.367-0.719 4.527l0.031 12.66c0.039 4.402 1.641 6.41 4.801 6.031l14.066-0.781z" inkscape:connector-curvature="0"/>
    </clipPath>
    <clipPath id="clipPath98">
      <path id="path100" d="m753.47-343.21h63.65v61.885h-63.65v-61.885z" inkscape:connector-curvature="0"/>
    </clipPath>
    <linearGradient id="linearGradient102" y2="-312.27" gradientUnits="userSpaceOnUse" x2="812.51" y1="-312.27" x1="760.86">
      <stop id="stop104" style="stop-color:#ffffff;stop-opacity:0" offset="0"/>
      <stop id="stop106" style="stop-color:#ffffff;stop-opacity:0.349" offset="1"/>
    </linearGradient>
    <mask id="mask108">
      <g id="g110">
        <g id="g112" clip-path="url(#clipPath98)">
          <path id="path114" style="fill:url(#linearGradient102)" d="m753.47-343.21h63.65v61.885h-63.65v-61.885z" inkscape:connector-curvature="0"/>
        </g>
      </g>
    </mask>
    <linearGradient id="linearGradient118" y2="-312.27" gradientUnits="userSpaceOnUse" x2="812.51" y1="-312.27" x1="760.86">
      <stop id="stop120" style="stop-color:#130c0e" offset="0"/>
      <stop id="stop122" style="stop-color:#130c0e" offset="1"/>
    </linearGradient>
    <linearGradient id="linearGradient144" y2="667.04" gradientUnits="userSpaceOnUse" x2="-498.42" gradientTransform="matrix(.000022388 .6 .6 .0006 -387.84 324.63)" y1="667.04" x1="-525.22">
      <stop id="stop146" style="stop-color:#834715" offset="0"/>
      <stop id="stop148" style="stop-color:#512c0b" offset="1"/>
    </linearGradient>
    <clipPath id="clipPath162">
      <path id="path164" d="m17.758 25.333c1.902-0.157 3.344-0.708 4.32-1.649 0.883-0.859 1.32-1.949 1.32-3.269l-0.027-9.75c-0.023-1.141-0.273-2.043-0.75-2.7-0.762-0.281-1.961-0.371-3.601-0.273l-13.379 1.984c-1.161 0.258-1.942 0.649-2.34 1.168-0.422 0.582-0.629 1.571-0.629 2.973l0.027 9.027c0 1.16 0.25 2.078 0.75 2.758 0.621 0.223 1.321 0.293 2.102 0.211l12.207-0.48z" inkscape:connector-curvature="0"/>
    </clipPath>
    <clipPath id="clipPath170">
      <path id="path172" d="m3.6946-0.53389h38.894v38.189h-38.894v-38.189z" inkscape:connector-curvature="0"/>
    </clipPath>
    <radialGradient id="radialGradient174" gradientUnits="userSpaceOnUse" cy="18.895" cx="21.147" r="25.958">
      <stop id="stop176" style="stop-color:#ffffff;stop-opacity:0" offset="0"/>
      <stop id="stop178" style="stop-color:#ffffff;stop-opacity:.21959" offset=".91370"/>
      <stop id="stop180" style="stop-color:#ffffff;stop-opacity:.32940" offset="1"/>
    </radialGradient>
    <mask id="mask182">
      <g id="g184">
        <g id="g186" clip-path="url(#clipPath170)">
          <path id="path188" style="fill:url(#radialGradient174)" d="m3.6946-0.53389h38.894v38.189h-38.894v-38.189z" inkscape:connector-curvature="0"/>
        </g>
      </g>
    </mask>
    <radialGradient id="radialGradient192" gradientUnits="userSpaceOnUse" cy="18.895" cx="21.147" r="25.958">
      <stop id="stop194" style="stop-color:#130c0e" offset="0"/>
      <stop id="stop196" style="stop-color:#130c0e" offset="1"/>
    </radialGradient>
    <clipPath id="clipPath204">
      <path id="path206" d="m2.668 13.743h20.703v-3.09c-0.023-1.141-0.273-2.039-0.75-2.699-0.762-0.282-1.961-0.371-3.601-0.27l-13.379 1.981c-1.161 0.257-1.942 0.648-2.34 1.168-0.422 0.562-0.633 1.531-0.633 2.91z" inkscape:connector-curvature="0"/>
    </clipPath>
    <clipPath id="clipPath212">
      <path id="path214" d="m-450.7 704.51h15.78v37.759h-15.78v-37.759z" inkscape:connector-curvature="0"/>
    </clipPath>
    <linearGradient id="linearGradient216" y2="723.27" gradientUnits="userSpaceOnUse" x2="-443.1" y1="723.27" x1="-451.63">
      <stop id="stop218" style="stop-color:#ffffff;stop-opacity:.23920" offset="0"/>
      <stop id="stop220" style="stop-color:#ffffff;stop-opacity:0" offset="1"/>
    </linearGradient>
    <mask id="mask222">
      <g id="g224">
        <g id="g226" clip-path="url(#clipPath212)">
          <path id="path228" style="fill:url(#linearGradient216)" d="m-450.7 704.51h15.78v37.759h-15.78v-37.759z" inkscape:connector-curvature="0"/>
        </g>
      </g>
    </mask>
    <linearGradient id="linearGradient232" y2="723.27" gradientUnits="userSpaceOnUse" x2="-443.1" y1="723.27" x1="-451.63">
      <stop id="stop234" style="stop-color:#000000" offset="0"/>
      <stop id="stop236" style="stop-color:#000000" offset="1"/>
    </linearGradient>
    <radialGradient id="radialGradient252" gradientUnits="userSpaceOnUse" cy="-550.41" cx="-638.38" gradientTransform="matrix(-.59976 -.01832 .01312 -.4304 -370.51 -242.37)" r="5.7152">
      <stop id="stop254" style="stop-color:#f2d838" offset="0"/>
      <stop id="stop256" style="stop-color:#ae7e1f" offset=".65490"/>
      <stop id="stop260" style="stop-color:#cfa129" offset=".81570"/>
      <stop id="stop262" style="stop-color:#c29929" offset="1"/>
    </radialGradient>
    <linearGradient id="linearGradient278" y2="-465.4" gradientUnits="userSpaceOnUse" x2="701.24" gradientTransform="matrix(.17672 -.57336 -.57336 -.17672 -387.84 324.63)" y1="-465.4" x1="696.74">
      <stop id="stop280" style="stop-color:#efd43b" offset="0"/>
      <stop id="stop282" style="stop-color:#c29124" offset="1"/>
    </linearGradient>
    <radialGradient id="radialGradient298" gradientUnits="userSpaceOnUse" cy="-554.81" cx="-664.5" gradientTransform="matrix(-.59968 -.01912 .01304 -.40856 -370 -234.76)" r="6.5905">
      <stop id="stop300" style="stop-color:#f2d838" offset="0"/>
      <stop id="stop302" style="stop-color:#ae7e1f" offset=".65490"/>
      <stop id="stop306" style="stop-color:#cfa129" offset=".81570"/>
      <stop id="stop308" style="stop-color:#c29929" offset="1"/>
    </radialGradient>
    <linearGradient id="linearGradient324" y2="-490.3" gradientUnits="userSpaceOnUse" x2="712.66" gradientTransform="matrix(.176 -.5736 -.5736 -.176 -387.84 324.63)" y1="-490.3" x1="707.71">
      <stop id="stop326" style="stop-color:#efd43b" offset="0"/>
      <stop id="stop328" style="stop-color:#c29124" offset="1"/>
    </linearGradient>
  </defs>
  <g id="g10" transform="matrix(1.25 0 0 -1.25 0 36.983)">
    <g id="g12">
      <g id="g14">
        <g id="g16">
          <g id="g22">
            <path id="path32" style="fill-rule:evenodd;fill:url(#linearGradient24)" d="m23.789 28.684c2.242-0.32 3.813-1.152 4.711-2.492 0.742-1.078 1.109-2.668 1.109-4.77l-0.058-14.097c-0.039-2.66-0.961-4.59-2.762-5.789-1.598-1.082-3.957-1.59-7.078-1.532l-12.09 4.68c-1.34 0.383-2.242 0.981-2.699 1.801-0.481 0.859-0.723 2.371-0.723 4.531l-3.39 13.887c-0.278 1.722 0.519 2.953 2.402 3.691 1.379 0.539 3.48 0.84 6.301 0.899l14.277-0.809z" inkscape:connector-curvature="0"/>
          </g>
        </g>
      </g>
      <g id="g34">
        <g id="g36">
          <g id="g42">
            <path id="path50" style="fill-rule:evenodd;fill:url(#linearGradient44)" d="m2.969 28.473c0.801 0.402 1.84 0.68 3.121 0.84 0.84 0.102 1.98 0.16 3.418 0.18l14.281-0.809c0.902-0.121 1.652-0.309 2.25-0.57 0.422-0.18 0.66-0.379 0.723-0.602 0.058-0.219-0.121-0.387-0.543-0.508-1.02-0.281-1.91-0.39-2.668-0.328-0.66 0.039-1.422 0.227-2.281 0.567-0.981 0.382-4.27 0.679-9.868 0.902-0.222 0-1.832 0.078-4.832 0.238-1.601 0.102-2.8 0.133-3.601 0.09z" inkscape:connector-curvature="0"/>
          </g>
        </g>
      </g>
      <path id="path52" style="fill-rule:evenodd;fill:#c26d22" d="m18.898 27.723c2.204-0.219 3.864-1.058 4.981-2.519 1.019-1.301 1.531-2.957 1.531-4.981l-0.058-14.098c-0.043-2.621-0.622-4.371-1.743-5.25-0.957-0.742-2.558-1-4.8-0.781l-15.387 3.391c-1.344 0.379-2.242 0.98-2.703 1.801-0.481 0.859-0.719 2.367-0.719 4.527l0.031 12.66c0.039 4.402 1.641 6.41 4.801 6.031l14.066-0.781z" inkscape:connector-curvature="0"/>
      <path id="path54" style="fill-rule:evenodd;fill:#ab5e1a" d="m17.82 27.786 0.481-0.032-0.063-3.511c-0.117-3.098-0.179-5.45-0.179-7.051 0-0.078-0.008-1.367-0.028-3.867-0.019-1.5-0.011-2.61 0.028-3.332 0.043-0.641 0.14-1.418 0.3-2.34 0.2-1.141 0.34-2.11 0.422-2.91 0.141-1.321 0.258-2.879 0.36-4.68l-0.512 0.059c-0.258 2.64-0.391 4.382-0.391 5.222 0 1.039-0.179 1.969-0.539 2.789-0.379 0.821-0.57 1.489-0.57 2.012 0 0.137 0.031 0.566 0.09 1.289 0.058 0.719 0.09 2.539 0.09 5.457 0 2.301 0.07 4.262 0.211 5.883 0.16 1.922 0.261 3.59 0.3 5.012z" inkscape:connector-curvature="0"/>
      <path id="path56" style="fill-rule:evenodd;fill:#ab5e1a" d="m11.34 28.145 0.512-0.031 0.058-1.321c0.121-1.8 0.36-3.449 0.719-4.949 0.101 1.5 0.18 3.571 0.242 6.211l0.598-0.031v-0.031c-0.141-4.278-0.289-6.977-0.449-8.098l-0.211-1.199c-0.2 0.519-0.411 1.308-0.629 2.367-0.442 2.102-0.719 4.461-0.84 7.082z" inkscape:connector-curvature="0"/>
      <path id="path58" style="fill-rule:evenodd;fill:#ab5e1a" d="m8.609 27.696v0.597l0.84-0.031 0.539-26.219-0.836 0.18-0.183 8.672c-0.141 4.141-0.231 7.129-0.27 8.969-0.097 3.121-0.129 5.73-0.09 7.832z" inkscape:connector-curvature="0"/>
      <path id="path60" style="fill-rule:evenodd;fill:#ab5e1a" d="m0.988 26.883c0.141 0.219 0.313 0.43 0.512 0.629-0.219-4.219-0.332-7.508-0.332-9.867 0-6.301-0.047-10.562-0.148-12.781l-0.332 0.48 0.031 2.699c-0.078 4.86-0.02 10.161 0.183 15.903l0.086 2.937z" inkscape:connector-curvature="0"/>
      <path id="path62" style="fill-rule:evenodd;fill:#ab5e1a" d="m4.949 28.504 0.512-0.031 0.027-2.277c0-4.641 0.141-12.403 0.422-23.281l-0.601 0.148-0.09 3.633c-0.18 9.5-0.27 16.097-0.27 19.797v2.011z" inkscape:connector-curvature="0"/>
      <path id="path64" style="fill-rule:evenodd;fill:#ab5e1a" d="m21.359 21.543c-0.32 2.04-0.488 3.961-0.511 5.762l0.511-0.18c0.063-2.16 0.36-5.171 0.903-9.031 0.297-2.019 0.558-4.5 0.777-7.441 0.262-3.481 0.402-6.758 0.422-9.84-0.219-0.18-0.531-0.34-0.93-0.48l-0.09 6.66c-0.043 3.382-0.16 6.07-0.359 8.07-0.301 2.223-0.543 4.383-0.723 6.48z" inkscape:connector-curvature="0"/>
      <path id="path66" style="fill-rule:evenodd;fill:#ab5e1a" d="m1.859 27.844 0.243 0.18c0.058-1.66 0.089-3.27 0.089-4.828 0-9.5-0.062-15.551-0.183-18.153l-0.059-0.988-0.359 0.238 0.058 2.852c0 9.902 0.063 16.352 0.18 19.352l0.031 1.347z" inkscape:connector-curvature="0"/>
      <path id="path68" style="fill-rule:evenodd;fill:#ab5e1a" d="m3.66 28.536h0.508c0.082-0.922 0.121-1.551 0.121-1.891 0.039-0.781 0.039-3.539 0-8.281-0.019-4.86-0.019-7.848 0-8.969 0.02-0.281 0.051-2.332 0.09-6.152l-0.359 0.09c0.039 2.98 0.039 5.652 0 8.011-0.122 8.34-0.211 13.289-0.27 14.852l-0.09 2.34z" inkscape:connector-curvature="0"/>
      <path id="path70" style="fill-rule:evenodd;fill:#ab5e1a" d="m25.41 20.223-0.031-10.289c-0.359 2.301-0.578 3.781-0.66 4.441-0.16 1.36-0.211 2.551-0.149 3.571 0.02 0.238 0.071 0.898 0.149 1.98 0.019 0.297 0.031 1.567 0.031 3.809 0.441-1.02 0.66-2.192 0.66-3.512z" inkscape:connector-curvature="0"/>
      <path id="path72" style="fill-rule:evenodd;fill:#ab5e1a" d="m6.121 28.446 0.539-0.031c0.059-2.801 0.192-7.09 0.391-12.872 0.058-2.398 0.277-6.738 0.66-13.019l-0.539 0.121-0.211 4.949c-0.52 10.918-0.801 17.871-0.84 20.852z" inkscape:connector-curvature="0"/>
      <path id="path74" style="fill-rule:evenodd;fill:#ab5e1a" d="m2.73 3.696-0.089 24.597 0.511 0.153 0.149-24.934-0.571 0.184z" inkscape:connector-curvature="0"/>
      <path id="path76" style="fill-rule:evenodd;fill:#ab5e1a" d="m23.762 17.676c-0.262 2.219-0.391 4.707-0.391 7.469v0.629c0.301-0.301 0.57-0.629 0.809-0.988v-4.442c0-1.32 0.082-3.609 0.242-6.871 0.156-3.277 0.238-5.238 0.238-5.879 0-1 0.121-2.441 0.36-4.32-0.161-0.578-0.348-1.051-0.571-1.41-0.199 1.199-0.32 2.058-0.359 2.582-0.02 0.719-0.02 2.57 0 5.551 0.039 3.039-0.07 5.597-0.328 7.679z" inkscape:connector-curvature="0"/>
      <path id="path78" style="fill-rule:evenodd;fill:#ab5e1a" d="m10.168 28.204h0.422c-0.082-4.039-0.039-6.711 0.121-8.008 0.039-0.281 0.238-1.563 0.598-3.84 0.242-1.461 0.382-2.781 0.421-3.961 0.04-1 0.11-2.34 0.208-4.02 0.101-1.48 0.152-2.488 0.152-3.031 0-0.879-0.031-2.129-0.09-3.75l-0.781 0.153-0.059 2.847c0 0.879 0.121 1.641 0.36 2.281 0.121 0.321 0 1.711-0.36 4.168-0.422 3.082-0.699 5.633-0.84 7.653-0.101 1.699-0.152 4.097-0.152 7.199v2.309z" inkscape:connector-curvature="0"/>
      <path id="path80" style="fill-rule:evenodd;fill:#ab5e1a" d="m19.621 27.633 0.449-0.09v-3.597c0-1.344 0.2-3.301 0.602-5.883 0.398-2.559 0.598-4.699 0.598-6.418 0-2.98-0.051-6.84-0.149-11.582-0.121-0.02-0.312-0.027-0.57-0.027 0.058 4.597 0.078 7.519 0.058 8.757-0.039 2.243-0.07 3.43-0.089 3.571-0.122 0.558-0.239 1.672-0.36 3.332-0.238 2.98-0.383 5.008-0.422 6.09-0.078 1.519-0.117 3.468-0.117 5.847z" inkscape:connector-curvature="0"/>
      <path id="path82" style="fill-rule:evenodd;fill:#ab5e1a" d="m14.219 27.993 0.48-0.028c-0.34-5.718-0.75-10.461-1.23-14.218-0.219-1.801-0.309-3.192-0.27-4.172 0.02-0.602 0.082-1.61 0.18-3.032 0.019-0.757 0.371-2.589 1.051-5.488l-0.778 0.18c-0.461 2.058-0.781 3.66-0.961 4.801-0.242 1.558-0.351 2.98-0.332 4.257 0.02 1.442 0.243 3.243 0.661 5.403 0.441 2.422 0.742 4.969 0.902 7.648l0.297 4.649z" inkscape:connector-curvature="0"/>
      <path id="path84" style="fill-rule:evenodd;fill:#ab5e1a" d="m15.809 27.903 0.843-0.059c-0.043-2.039-0.062-4.59-0.062-7.652v-2.817c0-1.082-0.059-1.839-0.18-2.281-0.16-0.601-0.34-1.429-0.539-2.492-0.199-1.18-0.301-2.047-0.301-2.609 0-0.399-0.019-1.008-0.058-1.828 0-0.661 0.109-1.051 0.328-1.172 0.66-0.36 1.101-0.711 1.32-1.051 0.602-0.981 0.899-2.68 0.899-5.098v-0.57l-0.571 0.117c-0.019 0.723-0.109 1.524-0.269 2.402-0.219 1.438-0.457 2.301-0.719 2.579-0.301 0.082-0.551 0.222-0.75 0.421-0.359 0.04-0.609 0.11-0.75 0.211-0.223 0.18-0.332 1.008-0.332 2.489 0 0.84-0.07 1.75-0.207 2.73-0.082 0.5-0.012 1.488 0.207 2.969 0.363 1.5 0.609 2.551 0.754 3.152 0.219 1 0.328 3.25 0.328 6.75l0.059 3.809z" inkscape:connector-curvature="0"/>
      <g id="g86">
        <g id="g88" clip-path="url(#clipPath90)">
          <g id="g94" transform="matrix(.30496 -.51672 -.51672 -.30496 -387.84 324.63)">
            <g id="g116" mask="url(#mask108)">
              <path id="path124" style="fill-rule:evenodd;fill:url(#linearGradient118)" d="m18.898 27.723c2.204-0.219 3.864-1.058 4.981-2.519 1.019-1.301 1.531-2.957 1.531-4.981l-0.058-14.098c-0.043-2.621-0.622-4.371-1.743-5.25-0.957-0.742-2.558-1-4.8-0.781l-15.387 3.391c-1.344 0.379-2.242 0.98-2.703 1.801-0.481 0.859-0.719 2.367-0.719 4.527l0.031 12.66c0.039 4.402 1.641 6.41 4.801 6.031l14.066-0.781z" inkscape:connector-curvature="0"/>
            </g>
          </g>
        </g>
      </g>
      <path id="path126" style="fill-rule:evenodd;fill:#bd6d23" d="m25.41 20.223-0.058-14.098c-0.043-2.621-0.622-4.371-1.743-5.25-0.957-0.742-2.558-1-4.8-0.781l-9.899 2.16c1.883-0.3 4.742-0.8 8.582-1.5 4.02-0.738 6.379 0.508 7.078 3.75 0.321 1.442 0.492 3.961 0.512 7.559 0 3.941 0.109 6.66 0.328 8.16z" inkscape:connector-curvature="0"/>
      <path id="path128" style="fill-rule:evenodd;fill:#e88a32" d="m9.824 28.235c-0.312 0.012-0.605 0.019-0.883 0.027-3.043 0.082-5.121-0.207-6.242-0.867-1.277-0.762-2.07-2.16-2.367-4.199-0.148-1.067-0.25-2.621-0.301-4.668v3.945c0.039 4.402 1.641 6.41 4.801 6.031l4.992-0.269z" inkscape:connector-curvature="0"/>
      <path id="path130" style="fill-rule:evenodd;fill:#e88a32" d="m2.281 27.813c-0.101-0.059-0.261-0.25-0.48-0.57l-0.75-0.239 0.66 0.782c0.598 0.558 1.359 1 2.281 1.32 0.961 0.34 2.317 0.5 4.078 0.48 0.899 0 1.692-0.043 2.371-0.121-0.699 0-1.5-0.031-2.402-0.09-1.777-0.16-3.18-0.46-4.199-0.902-1.02-0.437-1.539-0.66-1.559-0.66z" inkscape:connector-curvature="0"/>
      <path id="path132" style="fill-rule:evenodd;fill:#c77326" d="m23.699 20.196-0.027-9.871c-0.043-1.719-0.551-2.871-1.531-3.45-0.821-0.5-2.219-0.679-4.2-0.542l-13.441 1.98c-1.16 0.262-1.941 0.66-2.34 1.199-0.441 0.582-0.66 1.582-0.66 3l0.031 9.184c0.039 2.879 1.438 4.199 4.199 3.961l12.301-0.481c1.899-0.16 3.348-0.722 4.348-1.683 0.883-0.879 1.32-1.981 1.32-3.297z" inkscape:connector-curvature="0"/>
      <g id="g134">
        <g id="g136">
          <g id="g142">
            <path id="path150" style="fill-rule:evenodd;fill:url(#linearGradient144)" d="m23.398 20.403-0.027-9.75c-0.043-1.699-0.551-2.84-1.531-3.418-0.82-0.481-2.199-0.652-4.141-0.512l-13.379 1.981c-1.16 0.261-1.941 0.652-2.34 1.171-0.418 0.579-0.628 1.571-0.628 2.969l0.027 9.031c0.043 2.86 1.43 4.168 4.172 3.93l12.211-0.48c1.898-0.16 3.34-0.711 4.316-1.649 0.883-0.863 1.32-1.953 1.32-3.273z" inkscape:connector-curvature="0"/>
          </g>
        </g>
      </g>
      <path id="path152" style="fill-rule:evenodd;fill:#a45d1c" d="m22.082 23.434c0.879-0.84 1.316-1.918 1.316-3.238l-0.027-9.75c-0.019-1.18-0.269-2.082-0.75-2.699-0.84-0.301-2.043-0.391-3.601-0.274l-13.379 1.949c-1.161 0.262-1.942 0.653-2.34 1.172-0.422 0.582-0.633 1.571-0.633 2.969l0.031 9.062c0 1.161 0.25 2.079 0.75 2.758 0.539 0.2 1.242 0.27 2.102 0.211l12.211-0.511c1.898-0.137 3.34-0.688 4.32-1.649z" inkscape:connector-curvature="0"/>
      <path id="path154" style="fill-rule:evenodd;fill:#c26d22" d="m22.082 23.676c0.879-0.863 1.316-1.953 1.316-3.273l-0.027-9.75c-0.019-1.141-0.269-2.039-0.75-2.699-0.762-0.282-1.961-0.371-3.601-0.27l-13.379 1.981c-1.161 0.257-1.942 0.648-2.34 1.168-0.422 0.582-0.633 1.57-0.633 2.972l0.031 9.028c0 1.16 0.25 2.082 0.75 2.761 0.621 0.219 1.321 0.289 2.102 0.211l12.211-0.48c1.898-0.16 3.34-0.711 4.32-1.649z" inkscape:connector-curvature="0"/>
      <path id="path156" style="fill-rule:evenodd;fill:#fef5e4" d="m22.082 23.676c0.879-0.863 1.316-1.953 1.316-3.273l-0.027-9.75c-0.019-1.141-0.269-2.039-0.75-2.699-0.762-0.282-1.961-0.371-3.601-0.27l-13.379 1.981c-1.161 0.257-1.942 0.648-2.34 1.168-0.422 0.582-0.633 1.57-0.633 2.972l0.031 9.028c0 1.16 0.25 2.082 0.75 2.761 0.621 0.219 1.321 0.289 2.102 0.211l12.211-0.48c1.898-0.16 3.34-0.711 4.32-1.649z" inkscape:connector-curvature="0"/>
      <g id="g158">
        <g id="g160" clip-path="url(#clipPath162)">
          <g id="g166" transform="matrix(.5984 -.04416 .0396 .53712 -1.583 8.1391)">
            <g id="g190" mask="url(#mask182)">
              <path id="path198" style="fill-rule:evenodd;fill:url(#radialGradient192)" d="m17.758 25.333c1.902-0.157 3.344-0.708 4.32-1.649 0.883-0.859 1.32-1.949 1.32-3.269l-0.027-9.75c-0.023-1.141-0.273-2.043-0.75-2.7-0.762-0.281-1.961-0.371-3.601-0.273l-13.379 1.984c-1.161 0.258-1.942 0.649-2.34 1.168-0.422 0.582-0.629 1.571-0.629 2.973l0.027 9.027c0 1.16 0.25 2.078 0.75 2.758 0.621 0.223 1.321 0.293 2.102 0.211l12.207-0.48z" inkscape:connector-curvature="0"/>
            </g>
          </g>
        </g>
      </g>
      <g id="g200">
        <g id="g202" clip-path="url(#clipPath204)">
          <g id="g208" transform="matrix(.06856 .59608 .59608 -.06856 -387.84 324.63)">
            <g id="g230" mask="url(#mask222)">
              <path id="path238" style="fill-rule:evenodd;fill:url(#linearGradient232)" d="m2.668 13.743h20.703v-3.09c-0.023-1.141-0.273-2.039-0.75-2.699-0.762-0.282-1.961-0.371-3.601-0.27l-13.379 1.981c-1.161 0.257-1.942 0.648-2.34 1.168-0.422 0.562-0.633 1.531-0.633 2.91z" inkscape:connector-curvature="0"/>
            </g>
          </g>
        </g>
      </g>
      <path id="path240" style="fill-rule:evenodd;fill:#583213" d="m5.398 6.036c0.102-0.621 0.024-1.184-0.238-1.68-0.238-0.504-0.582-0.793-1.019-0.871-0.442-0.063-0.852 0.109-1.231 0.508-0.379 0.402-0.621 0.922-0.719 1.562-0.101 0.621-0.031 1.18 0.207 1.68 0.243 0.5 0.594 0.789 1.051 0.871 0.442 0.059 0.86-0.113 1.262-0.512 0.379-0.398 0.609-0.918 0.687-1.558z" inkscape:connector-curvature="0"/>
      <g id="g242">
        <g id="g244">
          <g id="g250">
            <path id="path264" style="fill-rule:evenodd;fill:url(#radialGradient252)" d="m4.98 5.973c0-0.578-0.16-1.078-0.48-1.5-0.301-0.418-0.668-0.629-1.109-0.629-0.481 0-0.942 0.211-1.379 0.629-0.461 0.442-0.692 0.942-0.692 1.5 0 0.563 0.231 1.063 0.692 1.5 0.437 0.402 0.898 0.602 1.379 0.602 0.441 0 0.808-0.2 1.109-0.602 0.32-0.418 0.48-0.918 0.48-1.5z" inkscape:connector-curvature="0"/>
          </g>
        </g>
      </g>
      <path id="path266" style="fill-rule:evenodd;fill:#fcf5b4" d="m4.02 5.946c0-0.461-0.118-0.863-0.36-1.203-0.238-0.34-0.531-0.508-0.871-0.508s-0.629 0.168-0.867 0.508c-0.242 0.34-0.363 0.742-0.363 1.203 0 0.457 0.121 0.855 0.363 1.199 0.238 0.32 0.527 0.48 0.867 0.48s0.633-0.16 0.871-0.48c0.238-0.34 0.36-0.742 0.36-1.199z" inkscape:connector-curvature="0"/>
      <g id="g268">
        <g id="g270">
          <g id="g276">
            <path id="path284" style="fill-rule:evenodd;fill:url(#linearGradient278)" d="m3.781 5.973c0-0.457-0.121-0.859-0.359-1.199-0.242-0.32-0.531-0.481-0.871-0.481s-0.629 0.161-0.871 0.481c-0.239 0.34-0.36 0.742-0.36 1.199 0 0.461 0.121 0.86 0.36 1.203 0.242 0.34 0.531 0.508 0.871 0.508s0.629-0.168 0.871-0.512c0.238-0.339 0.359-0.738 0.359-1.199z" inkscape:connector-curvature="0"/>
          </g>
        </g>
      </g>
      <path id="path286" style="fill-rule:evenodd;fill:#583213" d="m21.719 3.543c0.101-0.699 0.011-1.32-0.27-1.859s-0.679-0.851-1.199-0.93c-0.5-0.082-0.98 0.098-1.441 0.539-0.438 0.442-0.711 1.012-0.809 1.711-0.121 0.7-0.039 1.321 0.238 1.86 0.301 0.539 0.711 0.851 1.231 0.929 0.519 0.082 1-0.097 1.441-0.539 0.438-0.441 0.711-1.011 0.809-1.711z" inkscape:connector-curvature="0"/>
      <g id="g288">
        <g id="g290">
          <g id="g296">
            <path id="path310" style="fill-rule:evenodd;fill:url(#radialGradient298)" d="m21.238 3.485c0-0.641-0.179-1.192-0.539-1.652-0.359-0.461-0.801-0.688-1.32-0.688-0.539 0-1.059 0.23-1.559 0.688-0.539 0.48-0.808 1.031-0.808 1.652 0 0.617 0.269 1.168 0.808 1.648 0.5 0.442 1.02 0.66 1.559 0.66 0.5 0 0.941-0.23 1.32-0.687 0.36-0.441 0.539-0.981 0.539-1.621z" inkscape:connector-curvature="0"/>
          </g>
        </g>
      </g>
      <path id="path312" style="fill-rule:evenodd;fill:#fcf5b4" d="m20.129 3.454c0-0.52-0.137-0.961-0.418-1.321-0.281-0.359-0.621-0.539-1.02-0.539-0.402 0-0.73 0.18-0.992 0.539-0.277 0.36-0.418 0.801-0.418 1.321 0 0.5 0.141 0.929 0.418 1.289 0.262 0.359 0.59 0.543 0.992 0.543 0.399 0 0.739-0.184 1.02-0.543 0.281-0.34 0.418-0.77 0.418-1.289z" inkscape:connector-curvature="0"/>
      <g id="g314">
        <g id="g316">
          <g id="g322">
            <path id="path330" style="fill-rule:evenodd;fill:url(#linearGradient324)" d="m19.859 3.485c0-0.5-0.14-0.942-0.418-1.32-0.281-0.36-0.621-0.54-1.019-0.54-0.383 0-0.711 0.18-0.992 0.54-0.278 0.359-0.418 0.8-0.418 1.32 0 0.519 0.14 0.961 0.418 1.32 0.281 0.36 0.613 0.539 0.992 0.539 0.398 0 0.738-0.179 1.019-0.539 0.278-0.383 0.418-0.82 0.418-1.32z" inkscape:connector-curvature="0"/>
          </g>
        </g>
      </g>
      <path id="path332" style="fill-rule:evenodd;fill:#932696" d="m22.371 13.172v-0.597l-0.57 0.058v0.571l0.57-0.032zm-1.32 0.871-0.571 0.063v0.598l0.571-0.059v-0.602zm0.66-0.718-0.57 0.058v0.571l0.57-0.059v-0.57zm0-0.09v-0.602l-0.57 0.063v0.566l0.57-0.027zm-0.66 0.148-0.571 0.032v0.597l0.571-0.058v-0.571zm1.32-0.898v-0.57l-0.543 0.031-0.027 0.597 0.57-0.058zm-1.23-0.57 0.57-0.059v-0.57l-0.539 0.027-0.031 0.602zm0.687-0.059 0.543-0.063 0.027-0.57-0.57 0.031v0.602zm-0.117 0.09-0.57 0.058v0.602l0.57-0.063v-0.597zm-1.981 2.219-0.57 0.058v0.57l0.57-0.031v-0.597zm0.661-0.059-0.571 0.059v0.57l0.571-0.031v-0.598zm-1.321 0.117-0.57 0.063v0.57l0.57-0.031v-0.602zm-0.66-0.027v-0.602l-0.57 0.059v0.57l0.57-0.027zm-0.57 0.117v0.602l0.57-0.059v-0.57l-0.57 0.027zm0.57-0.809v-0.601l-0.57 0.062v0.598l0.57-0.059zm0.66-0.058v-0.571l-0.57 0.028v0.601l0.57-0.058zm0 0.687v-0.597l-0.57 0.058v0.571l0.57-0.032zm0-1.949-0.57 0.031v0.598l0.57-0.059v-0.57zm-0.66-0.031v-0.598l-0.539 0.059-0.031 0.57 0.57-0.031zm0 0.66v-0.57l-0.57 0.031v0.601l0.57-0.062zm0.121-0.688 0.539-0.031 0.032-0.601-0.571 0.062v0.57zm-0.09-0.66v-0.601l-0.57 0.058v0.571l0.57-0.028zm0.661-0.062v-0.598l-0.571 0.059v0.601l0.571-0.062zm-0.661-0.629v-0.57l-0.57 0.031v0.598l0.57-0.059zm0.09-0.691 0.571-0.028v-0.601l-0.571 0.058v0.571zm-0.09-0.661v-0.597l-0.57 0.058v0.571l0.57-0.032zm0 0.661v-0.571l-0.57 0.063v0.57l0.57-0.062zm0.661-0.719v-0.602l-0.571 0.063v0.57l0.571-0.031zm0 0.781-0.571 0.027v0.602l0.571-0.059v-0.57zm0.66-1.441-0.571 0.058v0.602l0.571-0.059v-0.601zm0.75 0.539 0.566-0.059v-0.57l-0.566 0.031v0.598zm-0.09 0v-0.571l-0.57 0.032v0.601l0.57-0.062zm0.09 0.691 0.566-0.059v-0.601l-0.566 0.059v0.601zm1.886 0.602-0.57 0.058v0.571l0.57-0.032v-0.597zm0-0.692-0.57 0.059v0.601l0.57-0.058v-0.602zm-0.66 0.75-0.566 0.059v0.57l0.566-0.027v-0.602zm0-0.781v-0.57l-0.566 0.031v0.601l0.566-0.062zm0 0.09-0.566 0.062v0.571l0.566-0.032v-0.601z" inkscape:connector-curvature="0"/>
      <path id="path334" style="fill-rule:evenodd;fill:#3c423c" d="m14.18 21.274-1.2 0.148v1.293l1.2-0.152v-1.289zm1.41-0.149-1.199 0.149v1.262l1.199-0.121v-1.29zm0-0.21v-1.29l-1.199 0.149v1.289l1.199-0.148zm-1.41-1.11-1.2 0.117v1.293l1.2-0.152v-1.258zm1.441-1.652-1.23 0.121v1.289l1.199-0.117 0.031-1.293zm-1.441 0.152-1.2 0.117v1.293l1.2-0.121v-1.289zm0-1.5-1.2 0.149v1.261l1.2-0.121v-1.289zm1.441-0.359v-1.293l-1.23 0.152v1.289l1.23-0.148zm0 1.5v-1.293l-1.23 0.121v1.289l1.23-0.117zm-1.23-4.352 1.23-0.121v-1.289l-1.23 0.121v1.289zm-0.18-1.261-1.231 0.121v1.289l1.2-0.118 0.031-1.292zm1.41 2.613v-1.262l-1.23 0.121v1.289l1.23-0.148zm-1.441-1.113-1.2 0.121v1.289l1.2-0.118v-1.292zm0 1.472-1.2 0.149v1.289l1.2-0.149v-1.289zm2.851-1.98v-1.289l-1.23 0.117v1.293l1.23-0.121zm-5.461 8.039 1.2-0.121v-1.289l-1.2 0.121v1.289zm1.2-1.621v-1.289l-1.2 0.121v1.289l1.2-0.121zm-1.411-2.637-1.199 0.148v1.289l1.199-0.148v-1.289zm1.411-0.152-1.2 0.152v1.258l1.2-0.121v-1.289zm-2.61-1.411 1.199-0.121v-1.289l-1.199 0.121v1.289zm-0.211-1.257-1.199 0.148-0.031 1.262 1.23-0.121v-1.289zm0.211-0.243 1.199-0.121v-1.289l-1.199 0.153v1.257zm-0.211-1.257-1.199 0.148v1.289l1.199-0.148v-1.289zm2.821-0.301-1.2 0.148v1.262l1.2-0.121v-1.289zm-2.61 4.558 1.199-0.148v-1.262l-1.199 0.121v1.289zm2.82-4.8 1.231-0.118v-1.292l-1.231 0.152v1.258zm0-1.469 1.231-0.149v-1.261l-1.231 0.121v1.289zm2.641-0.09-1.23 0.149v1.261l1.23-0.121v-1.289zm-1.23-0.059 1.23-0.152v-1.289l-1.23 0.149v1.292z" inkscape:connector-curvature="0"/>
      <path id="path336" style="fill-rule:evenodd;fill:#1c5bb6" d="m7.23 10.895-3.031 0.449 0.121 4.77 1.289-0.121c0.403-0.039 0.973-0.129 1.711-0.27l-0.09-4.828z" inkscape:connector-curvature="0"/>
    </g>
  </g>
<metadata><rdf:RDF><cc:Work><dc:format>image/svg+xml</dc:format><dc:type rdf:resource="http://purl.org/dc/dcmitype/StillImage"/><cc:license rdf:resource="http://creativecommons.org/licenses/publicdomain/"/><dc:publisher><cc:Agent rdf:about="http://openclipart.org/"><dc:title>Openclipart</dc:title></cc:Agent></dc:publisher></cc:Work><cc:License rdf:about="http://creativecommons.org/licenses/publicdomain/"><cc:permits rdf:resource="http://creativecommons.org/ns#Reproduction"/><cc:permits rdf:resource="http://creativecommons.org/ns#Distribution"/><cc:permits rdf:resource="http://creativecommons.org/ns#DerivativeWorks"/></cc:License></rdf:RDF></metadata></svg>
